<mxfile host="app.diagrams.net" agent="Mozilla/5.0 (Windows NT 10.0; Win64; x64) AppleWebKit/537.36 (KHTML, like Gecko) Chrome/141.0.0.0 Safari/537.36 Edg/141.0.0.0" version="28.2.8">
  <diagram name="Page-1" id="G9xiFKug8nNEHU4Qc6Kt">
    <mxGraphModel dx="864" dy="474" grid="1" gridSize="10" guides="1" tooltips="1" connect="1" arrows="1" fold="1" page="1" pageScale="1" pageWidth="850" pageHeight="1100" math="0" shadow="0">
      <root>
        <mxCell id="0" />
        <mxCell id="1" parent="0" />
        <mxCell id="T92mFK9ZWtlFtV9iLCKA-1" value="Chức năng của jobio" style="rounded=1;whiteSpace=wrap;html=1;" parent="1" vertex="1">
          <mxGeometry x="380" y="20" width="120" height="60" as="geometry" />
        </mxCell>
        <mxCell id="OGNeeQ6CrWGerhJwRkG2-1" value="Chức năng dành cho ứng viên" style="rounded=1;whiteSpace=wrap;html=1;" parent="1" vertex="1">
          <mxGeometry x="140" y="130" width="120" height="60" as="geometry" />
        </mxCell>
        <mxCell id="OGNeeQ6CrWGerhJwRkG2-2" value="Chức năng dành cho nhà tuyển dụng" style="rounded=1;whiteSpace=wrap;html=1;" parent="1" vertex="1">
          <mxGeometry x="400" y="130" width="120" height="60" as="geometry" />
        </mxCell>
        <mxCell id="OGNeeQ6CrWGerhJwRkG2-3" value="" style="endArrow=none;html=1;rounded=0;" parent="1" edge="1">
          <mxGeometry width="50" height="50" relative="1" as="geometry">
            <mxPoint x="220" y="110" as="sourcePoint" />
            <mxPoint x="650" y="110" as="targetPoint" />
          </mxGeometry>
        </mxCell>
        <mxCell id="OGNeeQ6CrWGerhJwRkG2-4" value="" style="endArrow=classic;html=1;rounded=0;entryX=0.17;entryY=0.013;entryDx=0;entryDy=0;entryPerimeter=0;" parent="1" target="OGNeeQ6CrWGerhJwRkG2-2" edge="1">
          <mxGeometry width="50" height="50" relative="1" as="geometry">
            <mxPoint x="420" y="110" as="sourcePoint" />
            <mxPoint x="470" y="60" as="targetPoint" />
          </mxGeometry>
        </mxCell>
        <mxCell id="OGNeeQ6CrWGerhJwRkG2-5" value="" style="endArrow=classic;html=1;rounded=0;exitX=0.458;exitY=0.977;exitDx=0;exitDy=0;exitPerimeter=0;" parent="1" source="T92mFK9ZWtlFtV9iLCKA-1" edge="1">
          <mxGeometry width="50" height="50" relative="1" as="geometry">
            <mxPoint x="330" y="180" as="sourcePoint" />
            <mxPoint x="435" y="110" as="targetPoint" />
          </mxGeometry>
        </mxCell>
        <mxCell id="OGNeeQ6CrWGerhJwRkG2-6" value="" style="endArrow=classic;html=1;rounded=0;entryX=0.666;entryY=0.006;entryDx=0;entryDy=0;entryPerimeter=0;" parent="1" target="OGNeeQ6CrWGerhJwRkG2-1" edge="1">
          <mxGeometry width="50" height="50" relative="1" as="geometry">
            <mxPoint x="220" y="110" as="sourcePoint" />
            <mxPoint x="280" y="170" as="targetPoint" />
          </mxGeometry>
        </mxCell>
        <mxCell id="YYRI2rdI4tY2woOfrceG-1" value="Chức năng của quản trị / Người sáng lập" style="rounded=1;whiteSpace=wrap;html=1;" vertex="1" parent="1">
          <mxGeometry x="590" y="130" width="120" height="60" as="geometry" />
        </mxCell>
        <mxCell id="YYRI2rdI4tY2woOfrceG-2" value="" style="endArrow=classic;html=1;rounded=0;entryX=0.17;entryY=0.013;entryDx=0;entryDy=0;entryPerimeter=0;" edge="1" parent="1">
          <mxGeometry width="50" height="50" relative="1" as="geometry">
            <mxPoint x="649.9" y="109" as="sourcePoint" />
            <mxPoint x="649.9" y="130" as="targetPoint" />
          </mxGeometry>
        </mxCell>
      </root>
    </mxGraphModel>
  </diagram>
</mxfile>
